<svg xmlns="http://www.w3.org/2000/svg" viewBox="0 0 198 190" role="img" aria-labelledby="title">
<title id="title">DevLane symbol</title>
<path d="M 129 82 L 127 82 L 124 85 L 123 85 L 120 88 L 119 88 L 116 91 L 115 91 L 110 96 L 109 96 L 105 100 L 104 100 L 100 104 L 99 104 L 94 109 L 93 109 L 89 113 L 88 113 L 84 117 L 83 117 L 79 121 L 78 121 L 73 126 L 72 126 L 68 130 L 67 130 L 63 134 L 62 134 L 58 138 L 57 138 L 53 142 L 52 142 L 47 147 L 46 147 L 42 151 L 41 151 L 36 156 L 35 156 L 31 160 L 30 160 L 24 166 L 23 166 L 23 167 L 68 167 L 70 165 L 70 164 L 73 161 L 73 160 L 77 156 L 77 155 L 80 152 L 80 151 L 83 148 L 83 147 L 86 144 L 86 143 L 90 139 L 90 138 L 93 135 L 93 134 L 96 131 L 96 130 L 99 127 L 99 126 L 105 119 L 105 118 L 107 116 L 107 115 L 113 108 L 113 107 L 115 105 L 115 104 L 117 102 L 117 101 L 120 98 L 120 97 L 126 90 L 126 89 L 128 87 L 128 86 L 129 85 Z M 123 77 L 120 77 L 119 78 L 116 78 L 115 79 L 112 79 L 111 80 L 108 80 L 107 81 L 104 81 L 103 82 L 101 82 L 100 83 L 98 83 L 97 84 L 95 84 L 92 86 L 90 86 L 89 87 L 87 87 L 86 88 L 85 88 L 84 89 L 82 89 L 79 91 L 77 91 L 76 92 L 75 92 L 74 93 L 73 93 L 72 94 L 69 95 L 67 97 L 66 97 L 65 98 L 64 98 L 63 99 L 62 99 L 61 100 L 60 100 L 59 101 L 58 101 L 57 102 L 56 102 L 55 103 L 52 104 L 50 106 L 49 106 L 48 107 L 47 107 L 46 108 L 45 108 L 44 109 L 43 109 L 42 110 L 41 110 L 40 111 L 37 112 L 35 114 L 34 114 L 33 115 L 32 115 L 31 116 L 30 116 L 29 117 L 28 117 L 27 118 L 24 119 L 23 120 L 23 148 L 24 147 L 25 147 L 27 145 L 28 145 L 35 139 L 36 139 L 38 137 L 39 137 L 42 134 L 43 134 L 45 132 L 46 132 L 49 129 L 50 129 L 52 127 L 53 127 L 60 121 L 61 121 L 63 119 L 64 119 L 66 117 L 67 117 L 70 114 L 71 114 L 73 112 L 74 112 L 77 109 L 78 109 L 80 107 L 81 107 L 84 104 L 85 104 L 87 102 L 88 102 L 90 100 L 91 100 L 94 97 L 95 97 L 97 95 L 98 95 L 100 93 L 101 93 L 104 90 L 105 90 L 107 88 L 108 88 L 110 86 L 111 86 L 113 84 L 114 84 L 117 81 L 118 81 L 121 78 L 122 78 Z M 23 23 L 23 63 L 129 63 L 130 64 L 132 64 L 133 65 L 136 66 L 138 68 L 139 68 L 142 71 L 142 72 L 144 74 L 144 75 L 145 76 L 145 79 L 146 80 L 146 84 L 145 85 L 145 88 L 144 89 L 144 90 L 143 91 L 142 94 L 139 97 L 139 98 L 136 101 L 136 102 L 134 104 L 134 105 L 131 108 L 131 109 L 129 111 L 129 112 L 127 114 L 127 115 L 124 118 L 124 119 L 122 121 L 122 122 L 120 124 L 120 125 L 118 127 L 118 128 L 116 130 L 116 131 L 113 134 L 113 135 L 111 137 L 111 138 L 109 140 L 109 141 L 107 143 L 107 144 L 104 147 L 104 148 L 102 150 L 102 151 L 100 153 L 100 154 L 98 156 L 98 157 L 95 160 L 94 163 L 91 166 L 92 167 L 111 167 L 112 166 L 118 166 L 119 165 L 122 165 L 123 164 L 126 164 L 129 162 L 131 162 L 132 161 L 133 161 L 134 160 L 135 160 L 136 159 L 139 158 L 141 156 L 142 156 L 144 154 L 145 154 L 150 149 L 151 149 L 155 145 L 155 144 L 159 140 L 159 139 L 163 134 L 163 133 L 164 132 L 164 131 L 165 130 L 165 129 L 166 128 L 166 127 L 169 122 L 169 120 L 170 119 L 170 117 L 171 116 L 171 114 L 172 113 L 172 109 L 173 108 L 173 100 L 174 99 L 174 94 L 173 93 L 173 84 L 172 83 L 172 79 L 171 78 L 171 75 L 170 74 L 170 72 L 168 69 L 168 67 L 167 66 L 167 65 L 166 64 L 166 63 L 165 62 L 165 61 L 164 60 L 164 59 L 163 58 L 162 55 L 160 53 L 160 52 L 157 49 L 157 48 L 146 37 L 145 37 L 142 34 L 141 34 L 139 32 L 138 32 L 137 31 L 136 31 L 135 30 L 134 30 L 129 27 L 127 27 L 124 25 L 121 25 L 120 24 L 116 24 L 115 23 Z" fill="#000000" fill-rule="evenodd"/>
</svg>